<svg id="Group_12" data-name="Group 12" xmlns="http://www.w3.org/2000/svg" xmlns:xlink="http://www.w3.org/1999/xlink" width="70" height="70" viewBox="0 0 70 70">
  <defs>
    <clipPath id="clip-path">
      <rect id="Rectangle_32" data-name="Rectangle 32" width="70" height="70" fill="none"/>
    </clipPath>
  </defs>
  <g id="Group_11" data-name="Group 11" clip-path="url(#clip-path)">
    <path id="Path_15" data-name="Path 15" d="M.066,53.816V52.86A2.607,2.607,0,0,1,1,52.117c1.118-.552,2.22-1.136,3.331-1.7,1.2-.613,1.2-.611.684-1.849a3.7,3.7,0,0,1,.544-4.088A3.605,3.605,0,0,1,9.5,43.329c.3.082.408.066.561-.226a3.6,3.6,0,0,1,3.527-2.11,3.616,3.616,0,0,1,3.351,2.384c.166.391.3.422.671.229a44.519,44.519,0,0,1,8.968-3.892c-1.1-1.215-2.079-2.435-3.2-3.528a1.532,1.532,0,0,0-.855-.383c-1.142-.2-2.3-.333-3.418-.617-.674-.17-.862.049-1,.636a3.636,3.636,0,0,1-3.143,2.91,3.546,3.546,0,0,1-3.649-1.616c-.176-.247-.281-.3-.584-.177a3.723,3.723,0,0,1-5.313-3.7c.015-.44-.142-.532-.506-.593-1.232-.207-2.455-.469-3.69-.647a1.578,1.578,0,0,1-1.151-.723V30.6A1.332,1.332,0,0,1,1.689,30c1.238.278,2.5.433,3.746.693.463.1.634-.025.754-.461.916-3.32,1.835-6.639,2.8-9.946.15-.515,0-.6-.435-.694-2.419-.5-4.832-1.041-7.253-1.536a1.959,1.959,0,0,1-1.232-.708v-.82A1.474,1.474,0,0,1,1.61,16c2.171.488,4.349.945,6.527,1.408.507.108,1.124.4,1.5.216.308-.151.331-.882.48-1.356.007-.022.016-.043.024-.064a3.623,3.623,0,0,1,3.054-2.578,3.531,3.531,0,0,1,3.566,1.513c.236.319.376.4.781.231a3.53,3.53,0,0,1,3.887.6,3.5,3.5,0,0,1,1.2,3.743c-.16.617-.063.814.586.934a40.625,40.625,0,0,1,11.013,3.43c.419.211.873.7,1.251.55.362-.148.52-.76.8-1.14a1.018,1.018,0,0,0,.07-1.083,4.442,4.442,0,0,1,.187-3.81c.232-.38.177-.495-.133-.712a8.956,8.956,0,0,0-3.966-1.524c-1.111-.157-1.582-.539-1.668-1.3-.09-.8.247-1.238,1.3-1.66a13.566,13.566,0,0,1,6.681-.932c.366.041.523-.01.617-.369A10.97,10.97,0,0,1,40.494,9.48a48.176,48.176,0,0,1,6.443-8.442A5.174,5.174,0,0,1,48.146,0h.82a3.808,3.808,0,0,1,1.1.886c1.2,1.308,2.378,2.637,3.465,4.039a22.95,22.95,0,0,1,4.287,7.3c.121.4.342.255.57.232a13.99,13.99,0,0,1,7.059,1.1,1.3,1.3,0,0,1,.885,1.513,1.337,1.337,0,0,1-1.2,1.207c-.224.037-.449.073-.673.112a8.227,8.227,0,0,0-4.085,1.8,4.479,4.479,0,0,1,.37,4.313.882.882,0,0,0,.069.908q2.716,4.288,5.411,8.59a4.549,4.549,0,0,1-.243,5.577c-1.35,1.773-2.718,3.532-4.07,5.3-.138.18-.354.332-.352.5,1.831,0,3.626.017,5.421-.006a2.764,2.764,0,0,1,2.73,1.656c.111.238.2.488.292.733v1.229a4.374,4.374,0,0,1-2.8,2.429q-9.05,3.48-18.041,7.115a15.811,15.811,0,0,1-8.564.885c-4.019-.634-8.034-1.29-12.051-1.933a2.653,2.653,0,0,0-1.951.36A23.808,23.808,0,0,1,23.975,57.3c-.637.3-.782.57-.456,1.263a3.769,3.769,0,0,1-4.462,5.215c-.271-.072-.4-.1-.568.205a3.739,3.739,0,0,1-6.508.461c-.166-.212-.254-.3-.532-.141q-5,2.831-10.017,5.632c-.455,0-1.088.178-1.316-.05s-.05-.861-.05-1.316v-.137a11.5,11.5,0,0,1,1.056-.716q4.671-2.585,9.326-5.2c.244-.137.565-.215.354-.643-.36-.728-.678-1.476-1.014-2.216a7.224,7.224,0,0,0-.341-.875,1.159,1.159,0,0,1,.345-1.654c.944-.126,1.159-.011,1.535.84.349.789.688,1.582,1.033,2.373.4.915.775,1.842,1.21,2.741a1.664,1.664,0,0,0,2.238.842,1.7,1.7,0,0,0,.9-2.169c-.117-.341-.294-.662-.444-.993q-1.4-3.249-2.8-6.5-1.714-3.966-3.436-7.929A1.658,1.658,0,0,0,8.387,45.22a1.507,1.507,0,0,0-1.51,1.047,1.65,1.65,0,0,0,.051,1.556c.743,1.722,1.484,3.445,2.25,5.156A1.2,1.2,0,0,1,8.8,54.641c-.923.106-1.141-.018-1.514-.869-.236-.538-.486-1.072-.7-1.62-.146-.382-.3-.46-.689-.25-1.153.625-2.351,1.168-3.491,1.815-.792.449-1.53.743-2.34.1M41.715,17.405h2.809a10.123,10.123,0,0,0-6.35-2.911,9.165,9.165,0,0,0-3.28.195c.042.086.052.144.079.155a9.924,9.924,0,0,1,3.813,2.4.618.618,0,0,0,.486.19c.814-.011,1.628-.018,2.442-.027m6.423-.006c.338.016.677.052,1.015.041.282-.01.578.095.842-.137.949-.833,1-1.133.353-2.221q-.122-.2-.256-.4c-1.274-1.862-1.7-1.85-2.874.08a4.379,4.379,0,0,0-.641,1.1c-.077.171-.234.328-.14.559a1.667,1.667,0,0,0,1.7.975m7.644-.009a16.881,16.881,0,0,0,2.106.056.587.587,0,0,0,.482-.205,11.082,11.082,0,0,1,2.554-1.906l.337-.164,1.036-.354-.017-.16L61.121,14.5a9.774,9.774,0,0,0-4.292.4,8.482,8.482,0,0,0-4.034,2.46l-.083.051.09-.022a18.092,18.092,0,0,0,2.98,0M47.156,46.144l.007-.008a6.2,6.2,0,0,1-5.006,1.192c-2.459-.3-4.934-.477-7.4-.706-.793-.187-1.179-.632-1.066-1.229.116-.615.629-.911,1.423-.825.542.059,1.085.116,1.628.167,2.24.213,4.479.442,6.722.627A2.887,2.887,0,0,0,46.415,43.7c.211-.39.247-.6-.327-.708-3.075-.6-6.146-1.219-9.206-1.889a15.3,15.3,0,0,0-5.665-.356,39.807,39.807,0,0,0-12.885,4.782c-.278.15-.337.285-.207.579,1.056,2.384,2.1,4.775,3.143,7.164l1.1,2.6c1.15-.643,2.281-1.222,3.355-1.893a4.222,4.222,0,0,1,3.016-.53c4.059.638,8.112,1.322,12.172,1.955a12.783,12.783,0,0,0,6.719-.494c4.965-1.933,9.914-3.909,14.869-5.868q2.372-.938,4.741-1.883c.491-.2.82-.536.678-1.1a.848.848,0,0,0-1-.626c-.885.043-1.771.058-2.657.085q-8.34.21-16.68.423a.912.912,0,0,0-.25.084.146.146,0,0,0-.174.125M55.929,19.53c-.271-.014-.542-.04-.813-.04q-7.841,0-15.682,0c-1.292,0-1.292,0-1.292,1.266,0,1.066.033,1.1,1.123,1.1q5.591,0,11.182,0c.836,0,1.117.245,1.293,1.075a1.147,1.147,0,0,1-1.325.981c-3.8-.015-7.6-.006-11.4-.009-.32,0-.593-.009-.807.334-1.872,3.01-3.77,6-5.648,9.011a2.435,2.435,0,0,0,.123,2.929c.482.661,1.006,1.292,1.484,1.957a1.32,1.32,0,0,0,.9.531q5.944,1.2,11.881,2.427A1.9,1.9,0,0,1,48.641,43.5c-.038.265-.042.367.257.358q3.579-.118,7.158-.222c.816-.014,1.632-.039,2.448-.037.279,0,.4-.178.537-.355,1.787-2.324,3.579-4.643,5.353-6.976a2.488,2.488,0,0,0,.137-3.1c-1.854-2.965-3.726-5.918-5.583-8.882a.645.645,0,0,0-.639-.383c-.794.035-1.59.025-2.385.033-.744.035-1.323-.181-1.507-.994.253-.913.418-1.033,1.51-1.106.5.008,1,.021,1.493.022,1.667,0,1.669-.015,1.6-1.658-.022-.5-.255-.7-.715-.695-.791.006-1.583.022-2.374.033M11.916,44.049A1.7,1.7,0,0,0,12,45.735q1.136,2.624,2.278,5.246,2.115,4.871,4.233,9.741a1.7,1.7,0,0,0,2.267,1.044,1.723,1.723,0,0,0,.879-2.391c-.109-.27-.25-.528-.377-.791q-1.646-3.836-3.293-7.672-1.451-3.368-2.912-6.731a1.686,1.686,0,0,0-1.618-1.142,1.518,1.518,0,0,0-1.535,1.011m-1.207-9.9c.057-.146.126-.288.169-.438q1.5-5.293,2.993-10.586c.486-1.721.986-3.438,1.46-5.162a1.738,1.738,0,0,0-.72-2.084,1.587,1.587,0,0,0-1.992.209,1.366,1.366,0,0,0-.571.89c-.193.676-.39,1.352-.581,2.029Q9.492,26.013,7.523,33.026a1.68,1.68,0,0,0,1.1,2.126,1.65,1.65,0,0,0,2.089-1.006M16,35.647c.355-1.218.719-2.434,1.064-3.656q1.777-6.284,3.541-12.572a1.717,1.717,0,0,0-.631-2,1.786,1.786,0,0,0-2.7,1.2q-.585,2.059-1.167,4.12-1.643,5.822-3.281,11.645a1.713,1.713,0,0,0,1.014,2.233A1.651,1.651,0,0,0,16,35.647M47.139,3.929A36.935,36.935,0,0,0,42.383,10.3a12.529,12.529,0,0,0-1,2.157c-.133.381-.129.619.328.77a9.523,9.523,0,0,1,2.638,1.394c.336.247.472.167.649-.171a10.848,10.848,0,0,1,2.436-3.086,1.648,1.648,0,0,1,2.335-.032,10.394,10.394,0,0,1,2.522,3.012c.092.165.129.594.5.237A13.44,13.44,0,0,1,55.5,13.193c.349-.117.385-.316.287-.62a11.6,11.6,0,0,0-1.006-2.228,41.38,41.38,0,0,0-4.862-6.553c-1.429-1.64-1.431-1.639-2.784.138M31.092,37.54a4.8,4.8,0,0,1,.024-5.892c1-1.487,1.9-3.043,2.889-4.54.319-.484.326-.682-.24-.978a41.692,41.692,0,0,0-11.453-3.6c-.347-.069-.464.038-.557.374Q20.4,27.793,19,32.666c-.124.427.067.457.36.507.851.144,1.7.357,2.552.426a5.366,5.366,0,0,1,3.926,2.169c.692.868,1.485,1.656,2.233,2.479.332.325.464.927,1.115.812l2.746-.486-.843-1.033" transform="translate(0)" fill="#040303"/>
    <path id="Path_16" data-name="Path 16" d="M.362,95.142a1.959,1.959,0,0,0,1.232.708c2.421.495,4.833,1.032,7.253,1.536.432.09.585.179.435.694-.962,3.307-1.882,6.626-2.8,9.946-.12.436-.291.557-.754.461-1.243-.26-2.508-.415-3.746-.693a1.332,1.332,0,0,0-1.623.6Z" transform="translate(-0.296 -77.795)" fill="#fdccbe"/>
    <path id="Path_17" data-name="Path 17" d="M.362,286.066c.811.642,1.549.349,2.34-.1,1.14-.647,2.338-1.189,3.491-1.815.387-.21.543-.131.689.25.21.549.46,1.082.7,1.62.373.851.591.975,1.514.869l.994,2.486a1.159,1.159,0,0,0-.345,1.655,7.217,7.217,0,0,1,.341.875,2.653,2.653,0,0,1-.317.246c-2.229,1.254-4.447,2.53-6.7,3.742a12.551,12.551,0,0,1-2.7,1.372Z" transform="translate(-0.296 -232.25)" fill="#fdccbe"/>
    <path id="Path_18" data-name="Path 18" d="M.362,332.556a12.56,12.56,0,0,0,2.7-1.372c2.252-1.213,4.47-2.488,6.7-3.742a2.672,2.672,0,0,0,.317-.246c.336.74.654,1.488,1.014,2.216.212.428-.109.506-.354.643q-4.659,2.606-9.326,5.2a11.5,11.5,0,0,0-1.056.716Z" transform="translate(-0.296 -267.539)" fill="#fbae9c"/>
    <path id="Path_19" data-name="Path 19" d="M198.5,125.77c.185.813.763,1.029,1.507.994a3.365,3.365,0,0,0,.214.5c1.671,2.647,3.335,5.3,5.03,7.93a3.606,3.606,0,0,1-.03,4.487c-.827,1.106-1.7,2.178-2.512,3.295a35.622,35.622,0,0,0-2.571,3.494q-3.579.109-7.158.222c-.3.01-.3-.093-.257-.358a1.9,1.9,0,0,0-1.694-2.405q-5.937-1.23-11.881-2.427a1.319,1.319,0,0,1-.9-.531c-.478-.664-1-1.3-1.484-1.957a2.435,2.435,0,0,1-.123-2.929c1.879-3.006,3.776-6,5.648-9.011.214-.343.487-.334.807-.334,3.8,0,7.6-.006,11.4.009a1.147,1.147,0,0,0,1.325-.981l2.678,0m-2.973,13.283h0c0,.432-.024.866.006,1.3a1.007,1.007,0,0,0,1.053,1.019.983.983,0,0,0,.983-1.074c.018-.773.005-1.547.005-2.32,0-2.33-.206-2.538-2.512-2.538-1.472,0-1.459,0-1.386-1.462.017-.335.124-.423.439-.414.659.019,1.319.006,1.979.005,1,0,1.464-.315,1.475-1.008.012-.711-.465-1.042-1.506-1.043h-1.911c-2.3,0-2.518.224-2.518,2.541,0,1.484,0,1.47-1.464,1.39-.346-.019-.415-.145-.409-.45q.022-1.16,0-2.32a1.03,1.03,0,1,0-2.044,0c-.011.751,0,1.5,0,2.252,0,2.333.229,2.559,2.588,2.559,1.4,0,1.383,0,1.34,1.371-.011.35-.1.481-.464.47q-1.159-.034-2.32,0a1.04,1.04,0,0,0-1.139,1.082c.028.589.461.954,1.173.961q1.57.014,3.139,0a1.478,1.478,0,0,0,1.65-1.639c.016-.614.013-1.229,0-1.843-.006-.282.079-.385.381-.41,1.462-.119,1.461-.13,1.461,1.3v.273" transform="translate(-144.086 -102.836)" fill="#fcac89"/>
    <path id="Path_20" data-name="Path 20" d="M102.257,235.407c-1.046-2.389-2.087-4.78-3.143-7.164-.13-.294-.071-.429.207-.579a39.8,39.8,0,0,1,12.885-4.782,15.3,15.3,0,0,1,5.665.356c3.06.67,6.131,1.291,9.206,1.889.574.111.537.318.327.708a2.886,2.886,0,0,1-2.953,1.665c-2.243-.186-4.482-.415-6.722-.627-.543-.052-1.086-.109-1.628-.167-.794-.086-1.307.21-1.423.825-.113.6.273,1.042,1.066,1.229a1.5,1.5,0,0,0,1.424,1.163c1.124.121,2.253.2,3.379.3,1.149.1,2.3.156,3.443.324a4.151,4.151,0,0,0,3.969-1.571.747.747,0,0,0,.192-.7l-.007.008.174-.125a.908.908,0,0,1,.25-.084q8.34-.216,16.68-.423c-.277.48-.775.566-1.242.75q-9.593,3.776-19.171,7.589a13.159,13.159,0,0,1-4.936.737,22.919,22.919,0,0,1-3.826-.483c-2.738-.468-5.488-.862-8.229-1.309-1.884-.308-3.785-.94-5.521.463-.015.012-.044.008-.067.012" transform="translate(-80.989 -182.138)" fill="#fdccbe"/>
    <path id="Path_21" data-name="Path 21" d="M113.121,139.206c-.748-.824-1.541-1.611-2.233-2.479a5.366,5.366,0,0,0-3.926-2.169c-.857-.069-1.7-.282-2.552-.426-.293-.05-.484-.079-.36-.506q1.411-4.87,2.754-9.76c.093-.336.21-.442.557-.374a41.685,41.685,0,0,1,11.453,3.6c.566.3.559.494.24.978-.988,1.5-1.887,3.054-2.889,4.54a4.8,4.8,0,0,0-.025,5.892,11.588,11.588,0,0,1-3.018.706" transform="translate(-85.047 -100.96)" fill="#fdccbe"/>
    <path id="Path_22" data-name="Path 22" d="M116.649,256.98c.022,0,.051,0,.067-.012,1.736-1.4,3.637-.77,5.521-.463,2.741.448,5.492.841,8.229,1.31a22.918,22.918,0,0,0,3.826.483,13.159,13.159,0,0,0,4.936-.737q9.579-3.812,19.171-7.589c.467-.184.965-.27,1.242-.75.886-.027,1.772-.042,2.657-.085a.848.848,0,0,1,1,.626c.142.564-.187.9-.678,1.1q-2.368.948-4.741,1.883c-4.955,1.959-9.9,3.935-14.869,5.868a12.784,12.784,0,0,1-6.719.494c-4.06-.633-8.113-1.317-12.172-1.955a4.221,4.221,0,0,0-3.016.53c-1.074.671-2.206,1.25-3.355,1.893l-1.1-2.6" transform="translate(-95.381 -203.711)" fill="#fbae9c"/>
    <path id="Path_23" data-name="Path 23" d="M238.034,32.207c-.369.357-.406-.072-.5-.237a10.393,10.393,0,0,0-2.522-3.012,1.648,1.648,0,0,0-2.335.032,10.848,10.848,0,0,0-2.436,3.086c-.176.338-.312.418-.649.171a9.518,9.518,0,0,0-2.638-1.394c-.457-.151-.461-.39-.328-.77a12.53,12.53,0,0,1,1-2.157,36.935,36.935,0,0,1,4.756-6.374,4.106,4.106,0,0,1,.561.484,36.334,36.334,0,0,1,4.093,5.792c.713,1.351,1.407,2.751.994,4.378" transform="translate(-185.246 -17.623)" fill="#df9773"/>
    <path id="Path_24" data-name="Path 24" d="M306.862,150.787a35.651,35.651,0,0,1,2.571-3.494c.812-1.116,1.684-2.189,2.512-3.295a3.606,3.606,0,0,0,.03-4.487c-1.7-2.632-3.358-5.283-5.03-7.93a3.363,3.363,0,0,1-.214-.5c.795-.008,1.591,0,2.385-.033a.646.646,0,0,1,.639.384c1.857,2.963,3.729,5.916,5.583,8.882a2.488,2.488,0,0,1-.137,3.1c-1.774,2.333-3.566,4.653-5.353,6.976-.136.177-.259.355-.537.355-.816,0-1.632.023-2.448.037" transform="translate(-250.806 -107.157)" fill="#fa9267"/>
    <path id="Path_25" data-name="Path 25" d="M79.551,94.233a1.61,1.61,0,0,1,2.014-.085,1.717,1.717,0,0,1,.63,2q-1.763,6.288-3.541,12.572c-.346,1.221-.709,2.437-1.064,3.656a2.653,2.653,0,0,1-2.163-3.378c.714-2.641,1.475-5.269,2.212-7.9q.96-3.428,1.912-6.857" transform="translate(-61.589 -76.725)" fill="#fcf5bd"/>
    <path id="Path_26" data-name="Path 26" d="M50.567,86.11a1.587,1.587,0,0,1,1.992-.209,1.738,1.738,0,0,1,.72,2.085c-.474,1.724-.973,3.441-1.46,5.162q-1.5,5.293-2.993,10.586c-.042.15-.112.292-.169.438a2.715,2.715,0,0,1-2.129-3.51q1.544-5.338,3.018-10.7a31.076,31.076,0,0,0,1.021-3.857" transform="translate(-37.948 -70.026)" fill="#fcdf78"/>
    <path id="Path_27" data-name="Path 27" d="M65.356,237.061a1.518,1.518,0,0,1,1.535-1.011,1.685,1.685,0,0,1,1.618,1.142q1.462,3.363,2.912,6.731,1.651,3.834,3.293,7.672a2.71,2.71,0,0,1-3.62-1.33c-.572-1.1-.993-2.282-1.489-3.424q-2.122-4.892-4.251-9.78" transform="translate(-53.44 -193.012)" fill="#fcf5bd"/>
    <path id="Path_28" data-name="Path 28" d="M37.717,249.06a1.507,1.507,0,0,1,1.51-1.047,1.659,1.659,0,0,1,1.637,1.113q1.724,3.962,3.436,7.929,1.4,3.247,2.8,6.5a2.748,2.748,0,0,1-3.706-1.492c-.514-1.208-1.039-2.411-1.564-3.613q-2.054-4.7-4.114-9.389" transform="translate(-30.84 -202.793)" fill="#fcdf78"/>
    <path id="Path_29" data-name="Path 29" d="M225.472,110.333l-2.678,0c-.176-.831-.458-1.075-1.293-1.076q-5.591-.005-11.182,0c-1.09,0-1.122-.033-1.123-1.1,0-1.265,0-1.265,1.292-1.265q7.841,0,15.682,0c.271,0,.542.026.813.04q0,1.149,0,2.3c-1.092.072-1.257.193-1.51,1.106" transform="translate(-171.054 -87.399)" fill="#fedbcd"/>
    <path id="Path_30" data-name="Path 30" d="M264.189,26.148c.413-1.627-.282-3.027-.994-4.378a36.334,36.334,0,0,0-4.093-5.792,4.1,4.1,0,0,0-.561-.484c1.353-1.777,1.355-1.778,2.784-.138a41.388,41.388,0,0,1,4.862,6.553,11.608,11.608,0,0,1,1.006,2.228c.1.3.062.5-.287.62a13.439,13.439,0,0,0-2.716,1.391" transform="translate(-211.402 -11.564)" fill="#d98557"/>
    <path id="Path_31" data-name="Path 31" d="M36.931,253.758q2.057,4.694,4.114,9.389c.526,1.2,1.05,2.405,1.564,3.613a2.748,2.748,0,0,0,3.706,1.492c.15.33.326.651.444.993a1.7,1.7,0,0,1-.9,2.169,1.664,1.664,0,0,1-2.238-.841c-.434-.9-.81-1.826-1.21-2.741-.345-.791-.684-1.584-1.033-2.373-.376-.851-.591-.965-1.535-.84l-.994-2.486a1.2,1.2,0,0,0,.381-1.662c-.766-1.711-1.507-3.434-2.25-5.156a1.651,1.651,0,0,1-.051-1.556" transform="translate(-30.054 -207.491)" fill="#f6ce66"/>
    <path id="Path_32" data-name="Path 32" d="M64.482,241.6q2.126,4.89,4.251,9.78c.5,1.142.916,2.322,1.489,3.424a2.71,2.71,0,0,0,3.62,1.33c.127.263.268.521.377.791a1.724,1.724,0,0,1-.879,2.391,1.7,1.7,0,0,1-2.267-1.044q-2.129-4.865-4.233-9.741-1.139-2.623-2.278-5.246a1.7,1.7,0,0,1-.08-1.685" transform="translate(-52.566 -197.548)" fill="#f6e49a"/>
    <path id="Path_33" data-name="Path 33" d="M75.053,96.024q-.955,3.429-1.912,6.857c-.738,2.635-1.5,5.263-2.212,7.9a2.653,2.653,0,0,0,2.163,3.378,1.651,1.651,0,0,1-2.163.976,1.713,1.713,0,0,1-1.014-2.233q1.63-5.826,3.281-11.645.581-2.06,1.167-4.12a1.624,1.624,0,0,1,.689-1.117" transform="translate(-57.091 -78.516)" fill="#f6e49a"/>
    <path id="Path_34" data-name="Path 34" d="M46.018,88.216A31.078,31.078,0,0,1,45,92.073q-1.471,5.358-3.018,10.7a2.715,2.715,0,0,0,2.129,3.51,1.65,1.65,0,0,1-2.089,1.006,1.681,1.681,0,0,1-1.1-2.127q1.959-7.015,3.944-14.023c.191-.677.387-1.352.581-2.029a1.366,1.366,0,0,1,.571-.89" transform="translate(-33.399 -72.132)" fill="#f6ce66"/>
    <path id="Path_35" data-name="Path 35" d="M203.03,253.038a.747.747,0,0,1-.192.7,4.151,4.151,0,0,1-3.969,1.571c-1.139-.168-2.295-.223-3.443-.324-1.126-.1-2.255-.175-3.379-.3a1.5,1.5,0,0,1-1.424-1.163c2.468.229,4.943.4,7.4.706a6.2,6.2,0,0,0,5.006-1.192" transform="translate(-155.867 -206.903)" fill="#fbae9c"/>
    <path id="Path_36" data-name="Path 36" d="M289.562,82.046a8.482,8.482,0,0,1,4.034-2.46,9.774,9.774,0,0,1,4.292-.4.991.991,0,0,1,.14.666l-.337.164a8.117,8.117,0,0,0-3.249.814,3.983,3.983,0,0,0-1.893,1.242,18.133,18.133,0,0,1-2.98,0l-.007-.03" transform="translate(-236.767 -64.687)" fill="#92d2a1"/>
    <path id="Path_37" data-name="Path 37" d="M258.973,74.4c1.178-1.93,1.6-1.942,2.874-.08q.134.2.257.4c.65,1.088.6,1.388-.353,2.221-.263.231-.56.127-.842.137-.337.011-.676-.025-1.015-.041a5.922,5.922,0,0,0-.921-2.637" transform="translate(-211.755 -59.642)" fill="#72b69a"/>
    <path id="Path_38" data-name="Path 38" d="M198.2,82.119c-.814.009-1.628.016-2.442.027a.618.618,0,0,1-.486-.19,9.925,9.925,0,0,0-3.813-2.4c-.028-.01-.037-.069-.079-.155a9.165,9.165,0,0,1,3.28-.194c.112.073.22.152.335.219a9.123,9.123,0,0,1,3.207,2.691" transform="translate(-156.488 -64.714)" fill="#92d2a1"/>
    <path id="Path_39" data-name="Path 39" d="M306.746,109.264q0-1.149,0-2.3c.791-.012,1.583-.027,2.374-.034.46,0,.692.2.714.695.073,1.644.07,1.661-1.6,1.658-.5,0-1-.014-1.493-.022" transform="translate(-250.818 -87.436)" fill="#fdccbe"/>
    <path id="Path_40" data-name="Path 40" d="M212.912,82.408a9.123,9.123,0,0,0-3.207-2.691c-.115-.067-.223-.146-.335-.219a10.124,10.124,0,0,1,6.35,2.91Z" transform="translate(-171.197 -65.003)" fill="#72b69a"/>
    <path id="Path_41" data-name="Path 41" d="M305.946,86.16a3.981,3.981,0,0,1,1.893-1.242,8.111,8.111,0,0,1,3.249-.814,11.076,11.076,0,0,0-2.554,1.906.588.588,0,0,1-.482.206,16.915,16.915,0,0,1-2.106-.056" transform="translate(-250.164 -68.77)" fill="#72b69a"/>
    <path id="Path_42" data-name="Path 42" d="M153.973,206.6a11.586,11.586,0,0,0,3.018-.706l.843,1.033-2.746.486c-.651.115-.783-.487-1.115-.812" transform="translate(-125.9 -168.353)" fill="#fbae9c"/>
    <path id="Path_43" data-name="Path 43" d="M255.342,80.961a5.922,5.922,0,0,1,.921,2.637,1.667,1.667,0,0,1-1.7-.974c-.094-.231.063-.388.14-.559a4.377,4.377,0,0,1,.641-1.1" transform="translate(-208.124 -66.2)" fill="#92d2a1"/>
    <path id="Path_44" data-name="Path 44" d="M335.367,80.215a.991.991,0,0,0-.14-.666l1.158.152.017.16-1.036.354" transform="translate(-274.106 -65.045)" fill="#72b69a"/>
    <path id="Path_45" data-name="Path 45" d="M258.81,252.388l-.174.125a.146.146,0,0,1,.174-.125" transform="translate(-211.48 -206.37)" fill="#fbae9c"/>
    <path id="Path_46" data-name="Path 46" d="M289.19,95.207l.007.03-.09.021.083-.051" transform="translate(-236.395 -77.848)" fill="#72b69a"/>
    <path id="Path_47" data-name="Path 47" d="M247.126,164.828v-.273c0-1.431,0-1.42-1.461-1.3-.3.024-.387.128-.381.41.013.614.016,1.229,0,1.843a1.478,1.478,0,0,1-1.65,1.639q-1.57.013-3.139,0c-.712-.006-1.145-.371-1.173-.961a1.04,1.04,0,0,1,1.139-1.082q1.159-.031,2.32,0c.362.01.453-.12.464-.47.043-1.372.057-1.371-1.34-1.371-2.359,0-2.588-.226-2.588-2.559,0-.751-.008-1.5,0-2.252a1.03,1.03,0,1,1,2.044,0q.021,1.16,0,2.32c-.006.305.064.431.409.45,1.464.08,1.464.094,1.464-1.39,0-2.317.222-2.541,2.518-2.541h1.911c1.041,0,1.518.332,1.506,1.043-.012.692-.472,1.007-1.475,1.008-.66,0-1.32.013-1.979-.005-.315-.009-.422.079-.438.414-.073,1.462-.086,1.462,1.386,1.462,2.307,0,2.512.208,2.512,2.538,0,.773.012,1.547-.005,2.32a.983.983,0,0,1-.983,1.074,1.007,1.007,0,0,1-1.053-1.019c-.03-.43-.006-.864-.006-1.3Z" transform="translate(-195.682 -128.611)" fill="#040303"/>
  </g>
</svg>
